# xmcd
#
# Track frame offsets: 
#        150
#        14984
#        31312
#        45889
#        63175
#        79431
#        93847
#        108434
#        126640
#        138675
#
# Disc length: 2019 seconds
#
# Revision: 0
# Processed by: cddbd v1.4PL0 Copyright (c) Steve Scherf et al.
# Submitted via: ExactAudioCopy v0.90b4
#
DISCID=8a07e10a
DTITLE=Rick Trevino and Jay Perez - Mano A Mano
DYEAR=1900
DGENRE=Country
TTITLE0=She Can't Say I Didn't Cry (Rick Trevino)
TTITLE1=You Wouldn't Be Gone (Jay Perez)
TTITLE2=Bastante Cordon (Rick Trevino)
TTITLE3=On This Side Of The Door (Jay Perez)
TTITLE4=I Only Get This Way With You (Rick Trevino)
TTITLE5=Nobody Told My Heart (Jay Perez)
TTITLE6=Me Duele Que La Trate Tan Bien (Rick Trevino)
TTITLE7=Steel Rain (Jay Perez)
TTITLE8=A Quarter At A Time (Rick Trevino)
TTITLE9=Don't It Break Your Heat (Jay Perez)
EXTD=
EXTT0=
EXTT1=
EXTT2=
EXTT3=
EXTT4=
EXTT5=
EXTT6=
EXTT7=
EXTT8=
EXTT9=
PLAYORDER=
